<mxfile host="app.diagrams.net" modified="2024-04-13T11:59:15.010Z" agent="Mozilla/5.0 (Windows NT 10.0; Win64; x64) AppleWebKit/537.36 (KHTML, like Gecko) Chrome/123.0.0.0 Safari/537.36" version="24.2.5" etag="aLLJPVpm1Say7l5scmOn" type="github">
  <diagram name="Sayfa -1" id="lo_NHsWRlYI7u0fPvgOs">
    <mxGraphModel>
      <root>
        <mxCell id="0" />
        <mxCell id="1" parent="0" />
      </root>
    </mxGraphModel>
  </diagram>
</mxfile>
